<?xml version = '1.0' encoding = 'UTF-8'?>
 
<svg width="800" height="600" version="1.1" 
xmlns="http://www.w3.org/2000/svg" 
xmlns:xlink="http://www.w3.org/1999/xlink">


    

<!--уши-->
<circle cx="40" cy="40" r="30" fill='#755107'/>
<circle cx="40" cy="40" r="15" fill='#d49311'/>
<circle cx="170" cy="40" r="30" fill='#755107'/>
<circle cx="170" cy="40" r="15" fill='#d49311'/>
<!--голова-->
<ellipse cx="105" cy="100" rx="90" ry="70" fill='#755107' />
<!--глаза-->
  <ellipse cx="150" cy="38" rx="20" ry="30" fill='#d49311' transform='rotate(23)' />
    <ellipse cx="40" cy="118" rx="20" ry="30" fill='#d49311' transform='rotate(-23)' />

<ellipse cx="150" cy="40" rx="15" ry="17" fill='white' transform='rotate(23)' />
    <ellipse cx="40" cy="120" rx="15" ry="17" fill='white' transform='rotate(-23)' />

<ellipse cx="150" cy="42" rx="10" ry="10" fill='black' transform='rotate(23)' />
    <ellipse cx="40" cy="122" rx="10" ry="10" fill='black' transform='rotate(-23)' />

    <circle cx="125" cy="94" r="5" fill='white'/>
<circle cx="87" cy="93" r="5" fill='white'/>

<!--nose-->
    <ellipse cx="104" cy="129" rx="33" ry="19" fill='black'  />
    <!--отблеск на носу-->
    <ellipse cx="109" cy="122" rx="23" ry="9" fill='grey'  />
     <ellipse cx="113" cy="119" rx="10" ry="5" fill='white'  />
<!--рот-->
<circle cx="105" cy="155" r="4" stroke-width='3' stroke='#593d05'   fill='black'/>
<!--brows-->
<rect width='20' height='2' fill='#593d05' x='70' y='50' stroke-width='5' stroke='#593d05' transform='rotate(-15 80 90)' stroke-linejoin = 'round'/>
<rect width='20' height='2' fill='#593d05' x='120' y='50' stroke-width='5' stroke='#593d05' transform='rotate(15 120 95)' stroke-linejoin = 'round'/>
</svg>

 
