<?xml version='1.0' encoding="UTF-8"?>
<svg width="1000" height="1000" 
     xmlns="http://www.w3.org/2000/svg" 
     xmlns:ev="http://www.w3.org/2001/xml-events"
     xmlns:xlink="http://www.w3.org/1999/xlink"  > 
     
<polygon points="605,238 715,168 825,238" fill="#FFE4B5" />
<polygon points="625,238 715,178 805,238" fill="#FFE4B5" stroke="white" stroke-width="5"/>
<rect width="220" height="25" fill="#FFE4B5" x="605" y="238"/>
<!--верхнее окно-->
<circle r="40" cx="715" cy="255" fill="#4682B4" stroke="white" stroke-width="10"/>
<rect width="10" height="50" fill="white" x="730" y="220"/>
<rect width="10" height="70" fill="white" x="690" y="220"/>
<!--верхнее окно-->
<rect width="220" height="35" fill="#FFE4B5" x="605" y="263"/>
<polygon points="826,268 826,296 866,295" fill="white" stroke="#FFE4B5" stroke-width="5"/>
<polygon points="604,268 604,296 564,295" fill="white" stroke="#FFE4B5" stroke-width="5"/> 



<rect width="317" height="35" fill="#FFE4B5" x="557" y="297"/>
<rect width="310" height="10" fill="white" x="560" y="300"/>

<polygon points="605,330 715,265 825,330" fill="#FFE4B5" stroke="white" stroke-width="5"/>


<!--квадраты под вторым треугольником-->
<rect width="35" height="35" fill="#FFE4B5" x="560" y="335" stroke="white" stroke-width="5"/>
<rect width="35" height="35" fill="#FFE4B5" x="595" y="335" stroke="white" stroke-width="5"/>
<rect width="35" height="35" fill="#FFE4B5" x="630" y="335" stroke="white" stroke-width="5"/>
<rect width="35" height="35" fill="#FFE4B5" x="665" y="335" stroke="white" stroke-width="5"/>
<rect width="35" height="35" fill="#FFE4B5" x="700" y="335" stroke="white" stroke-width="5"/>
<rect width="35" height="35" fill="#FFE4B5" x="735" y="335" stroke="white" stroke-width="5"/>
<rect width="35" height="35" fill="#FFE4B5" x="770" y="335" stroke="white" stroke-width="5"/>
<rect width="35" height="35" fill="#FFE4B5" x="805" y="335" stroke="white" stroke-width="5"/>
<rect width="33" height="35" fill="#FFE4B5" x="840" y="335" stroke="white" stroke-width="5"/>
<!--нижняя часть-->
<rect width="150" height="100" fill="#FFE4B5" x="635" y="373"/>
<rect width="100" height="300" fill="#FFE4B5" x="558" y="373"/>

<rect width="100" height="300" fill="#FFE4B5" x="775" y="373"/>
<circle r="55" cx="716" cy="462" fill="white"/>

<rect width="120" height="70" fill="#FFDAB9" x="765" y="630"/>
<rect width="120" height="70" fill="#FFDAB9" x="548" y="630"/>

<polygon points="765,385 765,415 735,385" fill="white" stroke="white" stroke-width="5"/>
<polygon points="698,385 668,415 668,385" fill="white" stroke="white" stroke-width="5"/>


<!--stripes-->

<rect width="100" height="10" fill="white" x="558" y="598"  />
<rect width="100" height="10" fill="white" x="558" y="578"  />
<rect width="100" height="10" fill="white" x="558" y="558"  />
<rect width="100" height="10" fill="white" x="558" y="538"  />
<rect width="100" height="10" fill="white" x="558" y="518"  />
<rect width="100" height="10" fill="white" x="558" y="498"  />


<rect width="100" height="10" fill="white" x="775" y="558" />
<rect width="100" height="10" fill="white" x="775" y="598"  />
<rect width="100" height="10" fill="white" x="775" y="578"  />
<rect width="100" height="10" fill="white" x="775" y="558"  />
<rect width="100" height="10" fill="white" x="775" y="538"  />
<rect width="100" height="10" fill="white" x="775" y="518"  />
<rect width="100" height="10" fill="white" x="775" y="498"  />
<!--windows-->
<rect width="40" height="70" fill="#4682B4" x="590" y="395"  stroke="white" stroke-width="10"/>
<rect width="40" height="70" fill="#4682B4" x="590" y="520"  stroke="white" stroke-width="10"/>

<rect width="40" height="70" fill="#4682B4" x="807" y="395"  stroke="white" stroke-width="10"/>
<rect width="40" height="70" fill="#4682B4" x="807" y="520"  stroke="white" stroke-width="10"/>
</svg>


